<svg xmlns="http://www.w3.org/2000/svg" width="1000" height="1000" viewBox="0 0 1000 1000">
  <defs>
    <style>
      .cls-1 {
        fill: #fff;
        fill-rule: evenodd;
      }
    </style>
  </defs>
  <path id="Прямоугольник_скругл._углы_1" data-name="Прямоугольник, скругл. углы 1" class="cls-1" d="M201,4H340.581a70,70,0,0,1,70,70V926a70,70,0,0,1-70,70H201a70,70,0,0,1-70-70V74A70,70,0,0,1,201,4Z"/>
  <path id="Прямоугольник_скругл._углы_1_копия" data-name="Прямоугольник, скругл. углы 1 копия" class="cls-1" d="M660.419,4H800a70,70,0,0,1,70,70V926a70,70,0,0,1-70,70H660.419a70,70,0,0,1-70-70V74A70,70,0,0,1,660.419,4Z"/>
</svg>
